<?xml version="1.0" encoding="UTF-8" standalone="no"?>
<!DOCTYPE svg PUBLIC "-//W3C//DTD SVG 1.1//EN"
 "http://www.w3.org/Graphics/SVG/1.1/DTD/svg11.dtd">
<!-- Generated by graphviz version 2.40.1 (20161225.0304)
 -->
<!-- Title: dependencies Pages: 1 -->
<svg width="671pt" height="284pt"
 viewBox="0.00 0.00 671.00 284.00" xmlns="http://www.w3.org/2000/svg" xmlns:xlink="http://www.w3.org/1999/xlink">
<g id="graph0" class="graph" transform="scale(1 1) rotate(0) translate(4 280)">
<title>dependencies</title>
<polygon fill="#ffffff" stroke="transparent" points="-4,4 -4,-280 667,-280 667,4 -4,4"/>
<text text-anchor="start" x="310.5091" y="-42.4" font-family="sans-serif" font-weight="bold" font-size="14.00" fill="#000000">Legend</text>
<polygon fill="#ffffb3" stroke="transparent" points="97.5,-10 97.5,-30 117.5,-30 117.5,-10 97.5,-10"/>
<text text-anchor="start" x="121.129" y="-15.4" font-family="sans-serif" font-size="14.00" fill="#000000"> &#160;Declarations</text>
<polygon fill="#8dd3c7" stroke="transparent" points="210.5,-10 210.5,-30 230.5,-30 230.5,-10 210.5,-10"/>
<text text-anchor="start" x="234.2251" y="-15.4" font-family="sans-serif" font-size="14.00" fill="#000000"> &#160;Module</text>
<polygon fill="#80b1d3" stroke="transparent" points="296.5,-10 296.5,-30 316.5,-30 316.5,-10 296.5,-10"/>
<text text-anchor="start" x="320.2812" y="-15.4" font-family="sans-serif" font-size="14.00" fill="#000000"> &#160;Bootstrap</text>
<polygon fill="#fdb462" stroke="transparent" points="393.5,-10 393.5,-30 413.5,-30 413.5,-10 393.5,-10"/>
<text text-anchor="start" x="417.1732" y="-15.4" font-family="sans-serif" font-size="14.00" fill="#000000"> &#160;Providers</text>
<polygon fill="#fb8072" stroke="transparent" points="489.5,-10 489.5,-30 509.5,-30 509.5,-10 489.5,-10"/>
<text text-anchor="start" x="513.2258" y="-15.4" font-family="sans-serif" font-size="14.00" fill="#000000"> &#160;Exports</text>
<g id="clust1" class="cluster">
<title>cluster_AppModule</title>
<polygon fill="none" stroke="#000000" stroke-dasharray="1,5" points="8,-70 8,-268 655,-268 655,-70 8,-70"/>
</g>
<g id="clust2" class="cluster">
<title>cluster_AppModule_declarations</title>
<polygon fill="none" stroke="#000000" points="166,-78 166,-130 647,-130 647,-78 166,-78"/>
</g>
<g id="clust10" class="cluster">
<title>cluster_AppModule_bootstrap</title>
<polygon fill="none" stroke="#000000" points="317,-208 317,-260 405,-260 405,-208 317,-208"/>
</g>
<g id="clust11" class="cluster">
<title>cluster_AppModule_providers</title>
<polygon fill="none" stroke="#000000" points="16,-78 16,-130 158,-130 158,-78 16,-78"/>
</g>
<!-- AddDataPage -->
<g id="node1" class="node">
<title>AddDataPage</title>
<polygon fill="#ffffb3" stroke="#000000" points="638.7451,-122 545.2549,-122 545.2549,-86 638.7451,-86 638.7451,-122"/>
<text text-anchor="middle" x="592" y="-99.8" font-family="Times,serif" font-size="14.00" fill="#000000">AddDataPage</text>
</g>
<!-- AppModule -->
<g id="node6" class="node">
<title>AppModule</title>
<polygon fill="#8dd3c7" stroke="#000000" points="402.6571,-187 399.6571,-191 378.6571,-191 375.6571,-187 319.3429,-187 319.3429,-151 402.6571,-151 402.6571,-187"/>
<text text-anchor="middle" x="361" y="-164.8" font-family="Times,serif" font-size="14.00" fill="#000000">AppModule</text>
</g>
<!-- AddDataPage&#45;&gt;AppModule -->
<g id="edge1" class="edge">
<title>AddDataPage&#45;&gt;AppModule</title>
<path fill="none" stroke="#000000" d="M592,-122.2843C592,-143.3211 592,-175 592,-175 592,-175 412.8324,-175 412.8324,-175"/>
<polygon fill="#000000" stroke="#000000" points="412.8324,-171.5001 402.8324,-175 412.8323,-178.5001 412.8324,-171.5001"/>
</g>
<!-- EditPage -->
<g id="node2" class="node">
<title>EditPage</title>
<polygon fill="#ffffb3" stroke="#000000" points="527.0471,-122 460.9529,-122 460.9529,-86 527.0471,-86 527.0471,-122"/>
<text text-anchor="middle" x="494" y="-99.8" font-family="Times,serif" font-size="14.00" fill="#000000">EditPage</text>
</g>
<!-- EditPage&#45;&gt;AppModule -->
<g id="edge2" class="edge">
<title>EditPage&#45;&gt;AppModule</title>
<path fill="none" stroke="#000000" d="M494,-122.0225C494,-139.3734 494,-163 494,-163 494,-163 412.7171,-163 412.7171,-163"/>
<polygon fill="#000000" stroke="#000000" points="412.7172,-159.5001 402.7171,-163 412.7171,-166.5001 412.7172,-159.5001"/>
</g>
<!-- HomePage -->
<g id="node3" class="node">
<title>HomePage</title>
<polygon fill="#ffffb3" stroke="#000000" points="442.9248,-122 365.0752,-122 365.0752,-86 442.9248,-86 442.9248,-122"/>
<text text-anchor="middle" x="404" y="-99.8" font-family="Times,serif" font-size="14.00" fill="#000000">HomePage</text>
</g>
<!-- HomePage&#45;&gt;AppModule -->
<g id="edge3" class="edge">
<title>HomePage&#45;&gt;AppModule</title>
<path fill="none" stroke="#000000" d="M384.0582,-122.1061C384.0582,-122.1061 384.0582,-140.991 384.0582,-140.991"/>
<polygon fill="#000000" stroke="#000000" points="380.5583,-140.9909 384.0582,-150.991 387.5583,-140.991 380.5583,-140.9909"/>
</g>
<!-- MyApp -->
<g id="node4" class="node">
<title>MyApp</title>
<polygon fill="#ffffb3" stroke="#000000" points="347.5529,-122 288.4471,-122 288.4471,-86 347.5529,-86 347.5529,-122"/>
<text text-anchor="middle" x="318" y="-99.8" font-family="Times,serif" font-size="14.00" fill="#000000">MyApp</text>
</g>
<!-- MyApp&#45;&gt;AppModule -->
<g id="edge4" class="edge">
<title>MyApp&#45;&gt;AppModule</title>
<path fill="none" stroke="#000000" d="M333.4737,-122.1061C333.4737,-122.1061 333.4737,-140.991 333.4737,-140.991"/>
<polygon fill="#000000" stroke="#000000" points="329.9738,-140.9909 333.4737,-150.991 336.9738,-140.991 329.9738,-140.9909"/>
</g>
<!-- ScoreListPage -->
<g id="node5" class="node">
<title>ScoreListPage</title>
<polygon fill="#ffffb3" stroke="#000000" points="270.3627,-122 173.6373,-122 173.6373,-86 270.3627,-86 270.3627,-122"/>
<text text-anchor="middle" x="222" y="-99.8" font-family="Times,serif" font-size="14.00" fill="#000000">ScoreListPage</text>
</g>
<!-- ScoreListPage&#45;&gt;AppModule -->
<g id="edge5" class="edge">
<title>ScoreListPage&#45;&gt;AppModule</title>
<path fill="none" stroke="#000000" d="M222,-122.0225C222,-139.3734 222,-163 222,-163 222,-163 309.2954,-163 309.2954,-163"/>
<polygon fill="#000000" stroke="#000000" points="309.2955,-166.5001 319.2954,-163 309.2954,-159.5001 309.2955,-166.5001"/>
</g>
<!-- IonicApp  -->
<g id="node7" class="node">
<title>IonicApp </title>
<polygon fill="#80b1d3" stroke="#000000" points="397.3734,-252 324.6266,-252 324.6266,-216 397.3734,-216 397.3734,-252"/>
<text text-anchor="middle" x="361" y="-229.8" font-family="Times,serif" font-size="14.00" fill="#000000">IonicApp </text>
</g>
<!-- AppModule&#45;&gt;IonicApp  -->
<g id="edge6" class="edge">
<title>AppModule&#45;&gt;IonicApp </title>
<path fill="none" stroke="#000000" stroke-dasharray="1,5" d="M361,-187.1061C361,-187.1061 361,-205.991 361,-205.991"/>
<polygon fill="#000000" stroke="#000000" points="357.5001,-205.9909 361,-215.991 364.5001,-205.991 357.5001,-205.9909"/>
</g>
<!-- DataProvider -->
<g id="node8" class="node">
<title>DataProvider</title>
<ellipse fill="#fdb462" stroke="#000000" cx="87" cy="-104" rx="62.5373" ry="18"/>
<text text-anchor="middle" x="87" y="-99.8" font-family="Times,serif" font-size="14.00" fill="#000000">DataProvider</text>
</g>
<!-- DataProvider&#45;&gt;AppModule -->
<g id="edge7" class="edge">
<title>DataProvider&#45;&gt;AppModule</title>
<path fill="none" stroke="#000000" d="M87,-122.2843C87,-143.3211 87,-175 87,-175 87,-175 309.087,-175 309.087,-175"/>
<polygon fill="#000000" stroke="#000000" points="309.0871,-178.5001 319.087,-175 309.087,-171.5001 309.0871,-178.5001"/>
</g>
</g>
</svg>
